<?xml version="1.0" standalone="no"?>
<!DOCTYPE svg PUBLIC "-//W3C//DTD SVG 20010904//EN"
 "http://www.w3.org/TR/2001/REC-SVG-20010904/DTD/svg10.dtd">
<svg version="1.0" xmlns="http://www.w3.org/2000/svg"
 width="105.000000pt" height="105.000000pt" viewBox="0 0 105.000000 105.000000"
 preserveAspectRatio="xMidYMid meet">
<metadata>
Created by potrace 1.11, written by Peter Selinger 2001-2013
</metadata>
<g transform="translate(0.000000,105.000000) scale(0.100000,-0.100000)"
fill="#000000" stroke="none">
<path d="M290 971 c0 -2 16 -33 35 -67 l36 -64 172 -2 172 -3 87 -150 c48 -82
88 -154 87 -160 0 -5 -39 -77 -87 -160 l-88 -150 -168 -1 -168 0 -39 -62 c-21
-34 -39 -64 -39 -67 0 -3 111 -5 248 -5 l247 1 128 220 128 221 -59 106 c-33
59 -91 161 -129 227 l-69 119 -247 1 c-136 0 -247 -2 -247 -4z"/>
<path d="M240 943 c0 -9 -16 -39 -149 -266 -28 -49 -51 -92 -51 -95 0 -4 -9
-18 -19 -31 -18 -24 -18 -25 17 -83 19 -32 39 -57 43 -56 5 2 62 95 127 208
l118 206 -32 53 c-36 59 -54 81 -54 64z"/>
<path d="M240 587 c-58 -100 -111 -194 -119 -209 -13 -26 -10 -33 50 -135 34
-60 68 -116 74 -126 11 -15 16 -10 49 45 l37 63 -35 66 -36 66 85 147 84 146
-36 60 c-19 33 -38 60 -42 60 -3 -1 -53 -83 -111 -183z"/>
</g>
</svg>
