<?xml version="1.0" standalone="no"?>
<!DOCTYPE svg PUBLIC "-//W3C//DTD SVG 20010904//EN"
 "http://www.w3.org/TR/2001/REC-SVG-20010904/DTD/svg10.dtd">
<svg version="1.0" xmlns="http://www.w3.org/2000/svg"
 width="720.000000pt" height="720.000000pt" viewBox="0 0 720.000000 720.000000"
 preserveAspectRatio="xMidYMid meet">
<metadata>
Created by potrace 1.11, written by Peter Selinger 2001-2013
</metadata>
<g transform="translate(0.000000,720.000000) scale(0.100000,-0.100000)"
fill="#000000" stroke="none">
<path d="M1972 6658 c17 -29 42 -73 56 -98 14 -25 67 -117 117 -205 51 -88
105 -183 120 -210 15 -28 37 -66 49 -85 26 -43 48 -82 106 -188 l45 -82 700 0
c385 0 920 -2 1189 -3 l490 -2 219 -375 c120 -206 221 -383 224 -392 3 -10 9
-18 14 -18 5 0 9 -4 9 -10 0 -5 22 -47 49 -92 27 -46 58 -99 69 -118 10 -19
147 -253 302 -520 155 -267 294 -505 308 -530 14 -25 36 -62 49 -82 29 -47 29
-59 -1 -106 -13 -20 -153 -262 -311 -537 -158 -275 -318 -552 -355 -615 -37
-63 -79 -136 -92 -161 -14 -25 -45 -79 -70 -120 -24 -41 -126 -216 -227 -390
l-182 -316 -1168 3 -1169 4 -62 -103 c-34 -56 -86 -140 -116 -187 -29 -47 -57
-92 -61 -100 -4 -8 -14 -26 -24 -40 -32 -47 -299 -487 -299 -494 0 -3 775 -5
1722 -4 l1723 3 47 80 c26 44 53 91 61 105 50 90 418 717 427 727 5 7 10 15
10 17 0 3 29 55 65 115 68 115 423 721 457 781 83 145 374 640 389 662 10 15
19 29 19 32 0 4 54 97 105 181 7 11 13 25 14 30 1 6 8 17 16 25 7 8 22 33 34
55 12 22 26 47 31 55 15 24 91 152 111 187 22 38 37 4 -144 318 -60 105 -123
215 -140 245 -17 30 -55 98 -85 150 -30 52 -63 110 -74 128 -16 29 -38 68
-120 211 -11 19 -64 112 -119 208 -55 96 -111 193 -124 216 -41 74 -285 501
-294 517 -5 8 -91 159 -191 335 -101 176 -191 332 -201 347 -11 15 -19 29 -19
32 0 3 -22 43 -49 89 -27 46 -60 103 -74 128 -13 24 -50 90 -83 146 l-59 103
-1732 0 -1732 0 31 -52z"/>
<path d="M1640 6443 c-30 -53 -66 -114 -79 -137 -105 -182 -459 -799 -476
-831 -13 -22 -55 -96 -95 -165 -40 -69 -81 -140 -91 -158 -11 -18 -189 -328
-396 -690 -207 -361 -405 -706 -439 -766 -35 -60 -62 -112 -60 -115 39 -79
512 -869 517 -864 5 6 659 1145 899 1568 10 17 40 70 69 119 28 49 51 90 51
92 0 1 27 48 60 103 33 56 60 104 60 107 0 3 8 18 19 32 10 15 32 52 49 82 16
30 81 143 142 250 62 107 127 223 146 257 19 34 59 103 88 154 30 50 67 115
82 143 l27 51 -188 315 c-240 402 -325 544 -328 547 -2 1 -27 -41 -57 -94z"/>
<path d="M2344 5232 c-48 -85 -212 -370 -347 -604 -27 -46 -171 -297 -195
-338 -11 -19 -35 -62 -54 -95 -19 -33 -78 -134 -130 -225 -53 -91 -162 -281
-244 -423 -82 -141 -157 -272 -167 -290 -63 -109 -274 -476 -350 -607 -137
-236 -149 -260 -142 -278 3 -9 36 -68 73 -130 37 -62 75 -127 86 -145 10 -18
49 -84 86 -147 119 -201 440 -749 459 -782 29 -52 313 -533 316 -536 2 -2 65
96 65 103 0 1 34 61 76 131 42 71 86 145 96 164 22 38 166 282 236 399 l44 74
-38 71 c-21 39 -45 85 -54 101 -9 17 -68 122 -130 235 -62 113 -148 269 -192
348 l-79 143 122 212 c67 117 135 237 152 267 16 30 33 60 37 65 4 6 19 30 32
55 27 48 187 327 373 650 61 107 123 215 137 240 14 25 94 164 176 308 l151
264 -18 26 c-24 35 -53 82 -66 107 -31 57 -429 722 -439 732 -8 9 -26 -15 -72
-95z"/>
</g>
</svg>
